<svg focusable="false" color="inherit" fill="currentcolor" aria-hidden="true" role="presentation" viewBox="0 0 150 150" preserveAspectRatio="xMidYMid meet" width="24px" height="24px" class="sc-5uo3xu-6 bybZgr sc-gZMcBi owTlD"><path d="M91.1 71.2l23.5 18.9c1.1.9 1.7 2.2 1.7 3.6s-.6 2.7-1.8 3.6L91 115.8c-2 1.6-4.9 1.2-6.4-.8-1.6-2-1.2-4.9.8-6.4l13.1-10.3H37.8c-2.5 0-4.6-2.1-4.6-4.6s2.1-4.6 4.6-4.6h60.9L85.4 78.4c-1.9-1.7-2.1-4.6-.4-6.5 1.5-1.8 4.2-2.1 6.1-.7zM0 25.5v108c0 6.6 5.4 12 12 12h126c6.6 0 12-5.4 12-12v-108c0-6.6-5.4-12-12-12h-24v-6c0-1.7-1.3-3-3-3s-3 1.3-3 3v6H42v-6c0-1.7-1.3-3-3-3s-3 1.3-3 3v6H12c-6.6 0-12 5.4-12 12zm6 24h138v84c0 3.3-2.7 6-6 6H12c-3.3 0-6-2.7-6-6v-84zm0-24c0-3.3 2.7-6 6-6h24v6.8c-2.9 1.7-3.9 5.3-2.2 8.2 1.7 2.9 5.3 3.9 8.2 2.2 2.9-1.7 3.9-5.3 2.2-8.2-.5-.9-1.3-1.7-2.2-2.2v-6.8h66v6.8c-2.9 1.7-3.9 5.3-2.2 8.2s5.3 3.9 8.2 2.2c2.9-1.7 3.9-5.3 2.2-8.2-.5-.9-1.3-1.7-2.2-2.2v-6.8h24c3.3 0 6 2.7 6 6v18H6v-18z"></path></svg>