<svg t="1613000111371" class="icon" viewBox="0 0 1024 1024" version="1.1" xmlns="http://www.w3.org/2000/svg" p-id="6300" width="200" height="200"><path d="M953.344 547.688727c-12.322909-1.687273-23.808 7.098182-25.448727 19.537455C921.425455 616.529455 906.321455 662.912 884.363636 705.047273L884.363636 139.636364c0-12.846545-10.426182-23.272727-23.272727-23.272727L395.636364 116.363636c-12.846545 0-23.272727 10.426182-23.272727 23.272727l0 116.363636c0 12.846545 10.426182 23.272727 23.272727 23.272727s23.272727-10.426182 23.272727-23.272727l0-93.090909 418.909091 0 0 593.454545c0 5.166545 1.733818 9.902545 4.596364 13.765818C798.522182 826.065455 740.840727 870.423273 674.909091 898.350545L674.909091 349.090909c0-12.846545-10.426182-23.272727-23.272727-23.272727L186.181818 325.818182c-12.846545 0-23.272727 10.426182-23.272727 23.272727l0 395.368727c-34.711273-51.863273-58.228364-112.023273-66.804364-177.210182-1.629091-12.416-13.032727-21.248-25.448727-19.537455-12.416 1.640727-21.166545 13.021091-19.537455 25.448727C81.384727 803.304727 279.517091 976.861091 512 976.861091c232.494545 0 430.638545-173.568 460.869818-403.723636C974.510545 560.721455 965.76 549.329455 953.344 547.688727zM207.627636 800.314182C208.802909 797.533091 209.454545 794.472727 209.454545 791.272727L209.454545 372.363636l418.909091 0 0 542.568727c-37.096727 10.775273-76.148364 16.570182-116.363636 16.570182C393.355636 931.502545 284.648727 881.384727 207.627636 800.314182zM649.704727 908.066909c-0.221091 0.081455-0.430545 0.162909-0.663273 0.244364C649.262545 908.206545 649.483636 908.148364 649.704727 908.066909z" p-id="6301" fill="#aaaaaa"></path><path d="M244.363636 418.909091l69.818182 0 0 69.818182-69.818182 0 0-69.818182Z" p-id="6302" fill="#aaaaaa"></path><path d="M384 418.909091l69.818182 0 0 69.818182-69.818182 0 0-69.818182Z" p-id="6303" fill="#aaaaaa"></path><path d="M523.636364 418.909091l69.818182 0 0 69.818182-69.818182 0 0-69.818182Z" p-id="6304" fill="#aaaaaa"></path><path d="M244.363636 558.545455l69.818182 0 0 69.818182-69.818182 0 0-69.818182Z" p-id="6305" fill="#aaaaaa"></path><path d="M384 558.545455l69.818182 0 0 69.818182-69.818182 0 0-69.818182Z" p-id="6306" fill="#aaaaaa"></path><path d="M523.636364 558.545455l69.818182 0 0 69.818182-69.818182 0 0-69.818182Z" p-id="6307" fill="#aaaaaa"></path><path d="M453.818182 209.454545l69.818182 0 0 69.818182-69.818182 0 0-69.818182Z" p-id="6308" fill="#aaaaaa"></path><path d="M593.454545 209.454545l69.818182 0 0 69.818182-69.818182 0 0-69.818182Z" p-id="6309" fill="#aaaaaa"></path><path d="M733.090909 209.454545l69.818182 0 0 69.818182-69.818182 0 0-69.818182Z" p-id="6310" fill="#aaaaaa"></path><path d="M244.363636 709.818182l69.818182 0 0 69.818182-69.818182 0 0-69.818182Z" p-id="6311" fill="#aaaaaa"></path><path d="M384 709.818182l69.818182 0 0 69.818182-69.818182 0 0-69.818182Z" p-id="6312" fill="#aaaaaa"></path><path d="M523.636364 709.818182l69.818182 0 0 69.818182-69.818182 0 0-69.818182Z" p-id="6313" fill="#aaaaaa"></path><path d="M733.090909 372.363636l69.818182 0 0 69.818182-69.818182 0 0-69.818182Z" p-id="6314" fill="#aaaaaa"></path><path d="M733.090909 523.636364l69.818182 0 0 69.818182-69.818182 0 0-69.818182Z" p-id="6315" fill="#aaaaaa"></path><path d="M733.090909 686.545455l69.818182 0 0 69.818182-69.818182 0 0-69.818182Z" p-id="6316" fill="#aaaaaa"></path></svg>